# xmcd CD database file
#
# Track frame offsets:
#	150
#	14665
#	27431
#	37923
#	49345
#	62048
#	75183
#	97634
#	113244
#	125746
#
# Disc length: 1859 seconds
#
# Revision: 0
# Processed by: cddbd v1.5.1PL0 Copyright (c) Steve Scherf et al.
# Submitted via: CDex 1.51
#
DISCID=7707410a
DTITLE=林　知行 - 気軽にジャズスタンダード　3
DYEAR=1900
DGENRE=Jazz
TTITLE0=Alfie
TTITLE1=Summertime
TTITLE2=C Jam Blues
TTITLE3=チュニジアの夜
TTITLE4=センチになって
TTITLE5=時のたつまま
TTITLE6=我が心のジョージア
TTITLE7=恋の気分で
TTITLE8=Polka Dots and Moonbeams
TTITLE9=Nocturne Op.9-2
EXTD=
EXTT0=
EXTT1=
EXTT2=
EXTT3=
EXTT4=
EXTT5=
EXTT6=
EXTT7=
EXTT8=
EXTT9=
PLAYORDER=
